<?xml version="1.0" encoding="utf-8"?>
<!-- Generator: Adobe Illustrator 16.0.0, SVG Export Plug-In . SVG Version: 6.00 Build 0)  -->
<!DOCTYPE svg PUBLIC "-//W3C//DTD SVG 1.1//EN" "http://www.w3.org/Graphics/SVG/1.1/DTD/svg11.dtd">
<svg version="1.1" id="Layer_1" xmlns="http://www.w3.org/2000/svg" xmlns:xlink="http://www.w3.org/1999/xlink" x="0px" y="0px"
	 width="201.998px" height="119.434px" viewBox="0 0 201.998 119.434" enable-background="new 0 0 201.998 119.434"
	 xml:space="preserve">
<path opacity="0.2" enable-background="new    " d="M161.911,58.18c-2.258-31.198-28.341-55.894-60.1-55.894
	c-31.765,0-57.853,24.695-60.107,55.894L1.167,58.185l2.99,4.149c0.261,0.363,5.913,8.102,13.598,9.621l1.175,1.631
	c0.263,0.367,5.915,8.1,13.6,9.627l1.174,1.633c0.29,0.402,7.217,9.875,16.195,9.875h2.515l0.985,1.373
	c0.238,0.336,4.924,6.729,11.535,9.053c-1.833,1.473-3.009,3.729-3.009,6.26c0,4.436,3.594,8.027,8.027,8.027
	c0.869,0,63.35,0,64.221,0c4.434,0,8.026-3.594,8.026-8.027c0-2.67-1.31-5.027-3.313-6.486c0.023-0.021,0.047-0.041,0.068-0.062
	c6.223-2.504,10.575-8.438,10.801-8.762l0.99-1.373h2.514c8.979,0,15.908-9.48,16.203-9.875l1.178-1.633
	c7.687-1.527,13.338-9.262,13.594-9.629l1.172-1.631c7.686-1.52,13.344-9.258,13.602-9.621l2.989-4.148L161.911,58.18z"/>
<path fill="#FFFFFF" d="M160.743,55.893C158.485,24.695,132.403,0,100.643,0C68.879,0,42.792,24.695,40.537,55.893L0,55.898
	l2.99,4.147c0.261,0.365,5.912,8.103,13.598,9.623l1.176,1.631c0.263,0.367,5.915,8.1,13.6,9.627l1.175,1.633
	c0.29,0.402,7.217,9.875,16.195,9.875h2.515l0.985,1.373c0.238,0.336,4.923,6.73,11.535,9.053c-1.832,1.473-3.008,3.729-3.008,6.262
	c0,4.434,3.594,8.025,8.027,8.025c0.868,0,63.35,0,64.221,0c4.433,0,8.026-3.594,8.026-8.025c0-2.672-1.31-5.029-3.313-6.488
	c0.022-0.021,0.045-0.041,0.068-0.062c6.221-2.504,10.574-8.438,10.801-8.762l0.989-1.373h2.513c8.981,0,15.91-9.48,16.205-9.875
	l1.178-1.633c7.687-1.527,13.336-9.262,13.593-9.629l1.172-1.631c7.687-1.52,13.344-9.256,13.603-9.622l2.988-4.147L160.743,55.893z
	"/>
<path fill="#1C1C1A" d="M145.226,58.514v-0.014h-7.711c0.027,0.598,0.088,1.182,0.088,1.781c0,18.719-13.998,34.195-32.068,36.604
	l-0.816,4.229h21.301c0.014-0.01,0.027-0.021,0.043-0.029h6.248c7.733,0,14.064-8.799,14.064-8.799h-10.896
	c0.643-0.807,1.271-1.615,1.867-2.469h14.656c7.735,0,14.064-8.791,14.064-8.791h-23.928c0.336-0.809,0.642-1.631,0.929-2.461
	h23.704c7.734,0,14.068-8.803,14.068-8.803h-35.692c0.106-0.816,0.185-1.637,0.245-2.463h36.151c7.735,0,14.062-8.795,14.062-8.795
	h-50.38V58.514z M63.674,60.281c0-0.6,0.06-1.184,0.091-1.781H55.51v0.021H5.118c0,0,6.331,8.793,14.069,8.793h36.155
	c0.062,0.828,0.143,1.646,0.25,2.463H19.89c0,0,6.331,8.805,14.07,8.805h23.71c0.29,0.824,0.595,1.65,0.93,2.461H34.665
	c0,0,6.329,8.791,14.068,8.791h14.658c0.594,0.846,1.219,1.666,1.867,2.467H54.361c0,0,6.331,8.799,14.068,8.799h6.249
	c0.015,0.01,0.028,0.021,0.042,0.031h22.844l-0.787-4.074C78.204,95.102,63.674,79.36,63.674,60.281z"/>
<path fill="#E13F2F" d="M100.643,2.425c-30.487,0-55.525,23.704-57.692,53.645h3.021c2.161-28.275,25.848-50.63,54.669-50.63
	c28.819,0,52.499,22.354,54.659,50.63h3.022C156.159,26.131,131.124,2.425,100.643,2.425z"/>
<g>
	<path fill="#E13F2F" d="M72.745,107.725l-2.335,1.703l0.898,2.758l-2.342-1.701l-2.344,1.701l0.896-2.758l-2.331-1.703h2.88
		l0.896-2.746l0.894,2.746H72.745z"/>
	<path fill="#E13F2F" d="M88.196,113.016l-0.145,0.045h-0.773l-0.606-0.014h-0.178l-0.497,0.023h-0.145l-0.101-0.045l-0.089-0.086
		l-0.353-0.5l-0.1-0.139l-0.353-0.469l-0.1-0.139l-0.309-0.512l-0.098-0.129l-0.354-0.479l-0.078-0.088l-0.067-0.041l-0.131-0.01
		l-0.354-0.021l-0.143,0.01l-0.089,0.07l-0.032,0.141l-0.024,0.617l0.011,0.17l0.044,0.625l0.012,0.178l0.012,0.258v0.18
		l-0.012,0.178l-0.023,0.129l-0.056,0.057l-0.12,0.033h-0.177l-0.532-0.033l-0.512,0.033H81.55l-0.51-0.033l-0.136-0.021
		l-0.065-0.049l-0.023-0.109l-0.012-0.156l-0.009-0.162l0.021-0.287l0.012-0.176l0.046-0.598v-0.178l-0.035-0.598l-0.011-0.176
		l-0.012-0.586v-0.178l0.034-0.598v-0.18l-0.034-0.598v-0.164l0.034-0.596v-0.18l0.024-0.59v-0.166l-0.011-0.605v-0.174
		l-0.024-0.367l0.011-0.164l0.013-0.066l0.03-0.143l0.068-0.09l0.132-0.033l0.089-0.012l0.163-0.02l0.498,0.029l1.319,0.047
		l0.751-0.047h0.178l0.733,0.051h0.421l0.188,0.008l0.165,0.041l0.236,0.061L86,105.254l0.167,0.068l0.177,0.059l0.166,0.076
		l0.143,0.088l0.21,0.143l0.123,0.1l0.108,0.117l0.112,0.133l0.153,0.225l0.101,0.145l0.134,0.213l0.073,0.148l0.078,0.164
		l0.056,0.178l0.035,0.176l0.01,0.178l0.022,0.242v0.174l-0.009,0.18l-0.023,0.188l-0.035,0.189l-0.044,0.17l-0.067,0.164
		l-0.078,0.168l-0.101,0.16l-0.098,0.146l-0.101,0.133l-0.098,0.129l-0.178,0.17l-0.121,0.098l-0.22,0.139l-0.133,0.076
		l-0.145,0.072l-0.145,0.039l-0.086,0.031l0.044,0.09l0.397,0.562l0.101,0.135l0.398,0.543l0.113,0.129l0.396,0.555l0.109,0.133
		l0.344,0.398l0.1,0.121l0.054,0.131L88.196,113.016z M84.847,108.756l0.243-0.049l0.142-0.049l0.134-0.076l0.112-0.137l0.077-0.166
		l0.042-0.176l0.014-0.178l-0.014-0.178l-0.022-0.191l-0.044-0.164l-0.076-0.164l-0.098-0.135l-0.125-0.102l-0.154-0.064
		l-0.245-0.049l-0.174-0.029l-0.554-0.012h-0.177l-0.565,0.041l-0.131,0.01l-0.076,0.033l-0.066,0.066l-0.011,0.123l0.011,0.252
		l0.022,0.17l0.022,0.193l0.012,0.182l-0.023,0.621l0.011,0.119l0.024,0.059l0.077,0.039l0.131,0.021l0.577,0.047h0.177
		L84.847,108.756z"/>
	<path fill="#E13F2F" d="M98.355,112.055l-0.087,0.088l-0.198,0.178l-0.133,0.102l-0.213,0.146l-0.133,0.088l-0.22,0.119
		l-0.145,0.08l-0.254,0.119l-0.165,0.057l-0.188,0.049l-0.189,0.043l-0.275,0.049l-0.385,0.051l-0.201,0.016l-0.275,0.023h-0.575
		l-0.189-0.012l-0.184-0.021l-0.191-0.035l-0.185-0.051l-0.169-0.057l-0.497-0.127l-0.243-0.09l-0.145-0.059l-0.21-0.131l-0.133-0.1
		l-0.146-0.102l-0.153-0.102l-0.287-0.24l-0.136-0.139l-0.123-0.141l-0.12-0.168l-0.099-0.146l-0.09-0.154l-0.077-0.158
		l-0.107-0.229l-0.169-0.467l-0.076-0.219l-0.11-0.334l-0.022-0.166l-0.012-0.254l0.012-0.158l0.009-0.178v-0.188l0.023-0.377
		l0.012-0.178l0.035-0.168l0.047-0.24l0.043-0.17l0.058-0.154l0.054-0.156l0.076-0.219l0.08-0.156l0.074-0.168l0.089-0.16
		l0.096-0.164l0.104-0.152l0.11-0.146l0.121-0.152l0.136-0.145l0.134-0.123l0.145-0.127l0.133-0.109l0.353-0.242l0.146-0.088
		l0.156-0.088l0.332-0.156l0.188-0.061l0.174-0.053l0.376-0.09l0.191-0.035l0.185-0.021l0.346-0.025l0.24-0.023l0.168,0.012
		l0.243,0.012l0.41,0.053l0.153,0.035l0.252,0.049l0.388,0.111l0.153,0.068l0.243,0.143l0.151,0.088l0.287,0.199l0.346,0.242
		l0.122,0.086l0.062,0.057l0.074,0.076l0.029,0.086l-0.015,0.092l-0.065,0.08l-0.101,0.121l-0.118,0.109l-0.12,0.109l-0.123,0.1
		l-0.124,0.121l-0.188,0.229l-0.123,0.131l-0.054,0.051l-0.098,0.088l-0.08,0.041l-0.077,0.01l-0.077-0.021l-0.122-0.068
		l-0.212-0.15l-0.143-0.072l-0.242-0.113l-0.152-0.053l-0.245-0.066l-0.163-0.033l-0.275-0.021H95.11l-0.243,0.021l-0.177,0.045
		l-0.243,0.078l-0.166,0.066l-0.146,0.047l-0.219,0.119l-0.156,0.111l-0.079,0.057l-0.134,0.146l-0.101,0.148l-0.074,0.146
		l-0.077,0.146l-0.065,0.166l-0.054,0.178l-0.032,0.189l-0.024,0.164l-0.022,0.332v0.178l0.009,0.277l0.014,0.158l0.055,0.256
		l0.051,0.168l0.076,0.188l0.089,0.16l0.166,0.244l0.119,0.135l0.212,0.176l0.146,0.098l0.222,0.111l0.166,0.068l0.242,0.062
		l0.179,0.035l0.266,0.014h0.252l0.154-0.037l0.09-0.025l0.165-0.047l0.275-0.102l0.177-0.08l0.167-0.074l0.143-0.078l0.212-0.131
		l0.145-0.113l0.109-0.078l0.066-0.021l0.101,0.021l0.121,0.078l0.124,0.113l0.047,0.064l0.109,0.121l0.178,0.221l0.109,0.141
		l0.299,0.34l0.098,0.137l0.054,0.053l0.054,0.098L98.355,112.055L98.355,112.055z"/>
	<path fill="#E13F2F" d="M110.421,112.055l0.01,0.178l0.049,0.34l0.014,0.162l-0.014,0.092l-0.014,0.119l-0.052,0.09l-0.063,0.049
		l-0.123,0.031l-0.159,0.012h-0.183l-0.439-0.043l-0.191-0.01h-0.281l-0.199-0.012l-0.408-0.049l-0.078-0.031l-0.048-0.047
		l-0.004-0.113l-0.015-0.154l-0.01-0.168l0.023-0.369v-1.041l-0.041-0.697v-0.176l0.045-0.688v-0.861l-0.018-0.131l-0.064-0.051
		h-0.07l-0.08,0.104l-0.108,0.152l-0.466,0.531l-0.672,0.814l-0.438,0.549l-0.104,0.088l-0.076,0.041h-0.09l-0.123-0.029
		l-0.133-0.033l-0.127-0.09l-0.553-0.664l-0.406-0.533l-0.113-0.141l-0.574-0.635l-0.146-0.146l-0.064,0.029l-0.021,0.123
		l-0.041,0.697v0.178l0.051,0.693v0.18l0.022,0.697v0.178l-0.011,0.684v0.16l0.011,0.34l-0.011,0.178l-0.012,0.189l-0.023,0.143
		l-0.051,0.064l-0.072,0.023l-0.287,0.031l-0.176,0.014l-0.432-0.045l-0.178,0.014l-0.531,0.049H101.8l-0.132-0.027l-0.065-0.061
		l-0.024-0.076l-0.022-0.109v-0.256l0.022-0.34v-1.717l-0.022-0.586v-0.178l0.015-0.586L101.556,109l-0.029-0.6v-0.174l0.031-0.588
		l0.015-0.17l-0.048-0.586l0.01-0.176l0.045-0.586v-0.182l-0.045-0.406v-0.178l0.021-0.145l0.047-0.074l0.068-0.055l0.084-0.021
		l0.144-0.012l0.188,0.023l0.243,0.055h0.175l0.34-0.039l0.188-0.021l0.166-0.014l0.42,0.014h0.146l0.125,0.053l0.108,0.123
		l0.388,0.434l0.109,0.145l0.323,0.445l0.11,0.146l0.363,0.43l0.109,0.156l0.345,0.43l0.109,0.129l0.101,0.049h0.111l0.101-0.049
		l0.101-0.117l0.338-0.438l0.109-0.154l0.346-0.432l0.115-0.146l0.388-0.432l0.114-0.146l0.287-0.346l0.082-0.123l0.092-0.09
		l0.113-0.055l0.139,0.008l0.589,0.039l0.518,0.01h0.179l0.34-0.027l0.188,0.018l0.133,0.021l0.077,0.023l0.062,0.055l0.029,0.082
		l-0.021,0.139l-0.043,0.496l-0.013,0.18l0.023,0.586v0.176l-0.012,0.59v0.17l0.012,0.594v0.168l0.051,0.6v0.178l-0.051,0.586v0.178
		l0.031,0.586v0.176l-0.043,0.586v0.182L110.421,112.055z"/>
	<path fill="#E13F2F" d="M121.406,112.055l-0.089,0.088l-0.198,0.178l-0.133,0.102l-0.214,0.148l-0.137,0.086l-0.223,0.121
		l-0.146,0.08l-0.248,0.123l-0.164,0.059l-0.191,0.047l-0.186,0.043l-0.275,0.049l-0.388,0.051l-0.196,0.008l-0.277,0.023h-0.58
		l-0.182-0.012l-0.191-0.021l-0.181-0.041l-0.188-0.045l-0.166-0.059l-0.5-0.127l-0.241-0.09l-0.146-0.059l-0.211-0.131
		l-0.142-0.102l-0.144-0.1l-0.152-0.1l-0.287-0.242l-0.135-0.137l-0.121-0.145l-0.123-0.168l-0.102-0.146l-0.086-0.154l-0.078-0.158
		l-0.108-0.229l-0.166-0.467l-0.078-0.219l-0.11-0.338l-0.021-0.162l-0.012-0.254l0.012-0.164l0.011-0.172v-0.189l0.021-0.375
		l0.011-0.178l0.038-0.168l0.046-0.24l0.051-0.17l0.05-0.158l0.051-0.152l0.078-0.219l0.082-0.156l0.069-0.168l0.089-0.16
		l0.102-0.164l0.101-0.154l0.108-0.145l0.123-0.152l0.14-0.145l0.133-0.123l0.144-0.127l0.138-0.109l0.353-0.242l0.146-0.088
		l0.157-0.088l0.33-0.156l0.189-0.061l0.176-0.053l0.379-0.092l0.182-0.033l0.191-0.021l0.342-0.027l0.242-0.021l0.17,0.012
		l0.243,0.012l0.408,0.053l0.149,0.035l0.254,0.049l0.388,0.111l0.155,0.068l0.244,0.141l0.151,0.09l0.285,0.197l0.343,0.244
		l0.122,0.088l0.062,0.057l0.077,0.076l0.024,0.086l-0.012,0.092l-0.065,0.08l-0.097,0.113l-0.128,0.123l-0.116,0.109l-0.12,0.098
		l-0.123,0.121l-0.188,0.23l-0.123,0.131l-0.055,0.049l-0.102,0.09l-0.074,0.041l-0.078,0.008l-0.074-0.02l-0.127-0.068
		l-0.207-0.152l-0.146-0.07l-0.241-0.113l-0.154-0.053l-0.242-0.066l-0.164-0.033l-0.273-0.023h-0.178l-0.242,0.023l-0.178,0.043
		l-0.242,0.08l-0.166,0.064l-0.144,0.049l-0.229,0.117l-0.15,0.113l-0.071,0.057l-0.138,0.146l-0.101,0.146l-0.077,0.146
		l-0.074,0.148l-0.062,0.166l-0.053,0.178l-0.034,0.189l-0.024,0.164l-0.022,0.33v0.178l0.01,0.279l0.015,0.156l0.051,0.256
		l0.048,0.168l0.077,0.193l0.092,0.16l0.164,0.244l0.123,0.135l0.207,0.176l0.144,0.098l0.229,0.113l0.158,0.066l0.244,0.062
		l0.178,0.037l0.264,0.012h0.251l0.155-0.035l0.086-0.027l0.164-0.047l0.275-0.102l0.174-0.08l0.162-0.074l0.145-0.078l0.209-0.129
		l0.145-0.115l0.111-0.076l0.062-0.023l0.101,0.023l0.127,0.076l0.119,0.115l0.05,0.062l0.109,0.121l0.179,0.221l0.112,0.141
		l0.298,0.34l0.103,0.139l0.053,0.051l0.051,0.098v0.068L121.406,112.055L121.406,112.055z"/>
	<path fill="#E13F2F" d="M136.974,107.725l-2.336,1.703l0.896,2.758l-2.34-1.701l-2.343,1.701l0.895-2.758l-2.326-1.703h2.877
		l0.897-2.746l0.896,2.746H136.974z"/>
</g>
<g>
	<path fill="#1C1C1A" d="M54.212,54.14l-0.004,0.073l-0.024,0.272l-0.004,0.051l-0.018,0.034l-0.026,0.021l-0.658,0.027h-0.08
		l-0.269-0.027l-0.079,0.004l-0.262,0.025l-0.082,0.007h-0.343l-0.265-0.027h-0.077l-0.432,0.032l-0.173-0.012l-0.06-0.017
		l-0.036-0.022l-0.014-0.036l-0.011-0.056l-0.011-0.118l-0.006-0.077l0.006-0.075v-0.068l0.022-0.267v-0.08l0.002-0.265
		l-0.002-0.075l-0.018-0.268l-0.004-0.079l0.011-0.271v-0.427l0.021-0.268l-0.007-0.082l-0.014-0.26l-0.007-0.08v-0.118l0.009-0.152
		v-0.084l0.018-0.255l0.004-0.073l0.015-0.043l0.027-0.021l0.042-0.004l0.063-0.009l0.327,0.021l0.303-0.004h0.082l0.301,0.021h0.08
		l0.301-0.021h0.08l0.684,0.01l0.083-0.006l0.173-0.014h0.129l0.067,0.014l0.033,0.032l0.007,0.032l0.009,0.066v0.134l-0.009,0.121
		v0.084l0.004,0.126l0.005,0.077l-0.005,0.076l-0.009,0.061l-0.02,0.037l-0.025,0.021l-0.058,0.01h-0.042l-0.082,0.005l-0.472-0.011
		h-0.078l-0.255,0.011h-0.081l-0.26-0.011l-0.226-0.016h-0.076l-0.04,0.005l-0.049,0.011l-0.025,0.025l-0.002,0.027l-0.009,0.05
		l-0.013,0.126v0.075l0.008,0.084l0.005,0.055l0.009,0.037l0.021,0.023l0.054,0.023l0.162,0.007l0.158-0.007h0.477l0.562-0.037
		l0.157,0.01l0.056,0.01l0.03,0.031l0.017,0.029l0.005,0.055l0.009,0.087l0.005,0.08v0.166l0.011,0.114l-0.011,0.152l-0.009,0.055
		l-0.022,0.041l-0.034,0.025l-0.049,0.009h-0.103l-0.225-0.024l-0.082-0.005l-0.401,0.025l-0.32-0.01h-0.082l-0.199-0.017
		l-0.086,0.005l-0.058,0.007l-0.029,0.015l-0.014,0.036l-0.004,0.072l-0.017,0.133l-0.005,0.077v0.116l0.004,0.048l0.017,0.034
		l0.018,0.027l0.056,0.004l0.276,0.01h0.082l0.272-0.019l0.356,0.019h0.081l0.36-0.019h0.072l0.077,0.005l0.179,0.019l0.031,0.019
		l0.021,0.026l0.008,0.059L54.212,54.14z"/>
	<path fill="#1C1C1A" d="M58.086,53.49l-0.007,0.084l-0.009,0.084l-0.014,0.083L58.03,53.85l-0.025,0.062l-0.047,0.103l-0.038,0.065
		l-0.058,0.09l-0.051,0.062l-0.062,0.052l-0.058,0.061l-0.098,0.057l-0.063,0.052l-0.078,0.041l-0.069,0.043l-0.116,0.038
		l-0.151,0.051l-0.081,0.017l-0.122,0.019l-0.077,0.01l-0.11,0.014l-0.072,0.004l-0.114,0.005l-0.243,0.015h-0.108l-0.069-0.005
		l-0.117-0.01l-0.073-0.009l-0.087-0.017l-0.076-0.024l-0.111-0.044l-0.069-0.034l-0.075-0.034l-0.07-0.043l-0.065-0.041
		l-0.16-0.108l-0.061-0.051l-0.091-0.065l-0.061-0.048l-0.054-0.059l-0.042-0.041l-0.005-0.035l0.026-0.052l0.021-0.021l0.049-0.061
		l0.141-0.127l0.047-0.056l0.086-0.132l0.043-0.055l0.049-0.049l0.055-0.031l0.054,0.012l0.056,0.039l0.161,0.113l0.073,0.044
		l0.072,0.035l0.114,0.056l0.078,0.026l0.08,0.023l0.081,0.016l0.115,0.005l0.076,0.008l0.318-0.023l0.082-0.009l0.039-0.009
		l0.075-0.032l0.067-0.048l0.049-0.048l0.026-0.039l0.032-0.07l-0.005-0.085l-0.011-0.048l-0.042-0.063l-0.025-0.034l-0.063-0.048
		L56.88,53.26l-0.075-0.034l-0.084-0.021l-0.089-0.015l-0.473-0.05l-0.154-0.032l-0.078-0.019l-0.114-0.045l-0.073-0.027
		l-0.076-0.034l-0.169-0.087l-0.067-0.051l-0.073-0.045l-0.067-0.02l-0.084-0.072l-0.047-0.063l-0.046-0.075l-0.03-0.067
		l-0.035-0.107l-0.014-0.08l-0.017-0.108l-0.012-0.162l0.004-0.079l0.012-0.123l0.017-0.076l0.021-0.059l0.024-0.075l0.049-0.112
		l0.037-0.07l0.04-0.06l0.049-0.05l0.08-0.076l0.067-0.048l0.063-0.048l0.073-0.034l0.098-0.057l0.149-0.06l0.073-0.025l0.119-0.021
		l0.08-0.014l0.152-0.021l0.107-0.026l0.082-0.01l0.072-0.004h0.082l0.149,0.015l0.077,0.018l0.038,0.009l0.078,0.009l0.172,0.032
		l0.087,0.019l0.078,0.031l0.086,0.023l0.081,0.03l0.073,0.037l0.077,0.033l0.096,0.051l0.073,0.041l0.063,0.043l0.043,0.045v0.048
		l-0.033,0.055l-0.054,0.089l-0.042,0.056l-0.192,0.258l-0.053,0.069l-0.058,0.049l-0.042,0.014l-0.038-0.002l-0.049-0.027
		l-0.074-0.044l-0.075-0.036l-0.037-0.014l-0.075-0.027l-0.04-0.009l-0.085-0.024L56.76,51.76l-0.08-0.007l-0.132-0.002h-0.131
		l-0.084,0.004l-0.083,0.017l-0.082,0.029l-0.033,0.014l-0.059,0.046l-0.026,0.036l-0.034,0.064l-0.009,0.079l0.014,0.065
		l0.042,0.061l0.054,0.05l0.058,0.03l0.038,0.016l0.074,0.016l0.126,0.02l0.173,0.009l0.083,0.017l0.171,0.041l0.161,0.051
		l0.116,0.024l0.076,0.019l0.145,0.051l0.098,0.045l0.067,0.042l0.073,0.041l0.063,0.048l0.145,0.118l0.056,0.055l0.049,0.062
		l0.064,0.092l0.039,0.064l0.038,0.071l0.022,0.072l0.018,0.112l0.009,0.074L58.086,53.49z"/>
	<path fill="#1C1C1A" d="M61.579,51.385l-0.007,0.075l0.007,0.152l-0.007,0.072l-0.005,0.046l-0.011,0.056l-0.015,0.038
		l-0.032,0.027l-0.058,0.009h-0.08l-0.152-0.016l-0.08-0.005l-0.229,0.017h-0.081l-0.126-0.012h-0.072l-0.038,0.007l-0.049,0.014
		l-0.022,0.036l-0.007,0.061l-0.016,0.297v0.082l0.016,0.301l-0.004,0.08l-0.016,0.301l-0.004,0.08l0.009,0.296v0.463l-0.009,0.295
		l0.004,0.077l0.021,0.225l0.007,0.082l-0.014,0.053l-0.025,0.029l-0.066,0.012l-0.096-0.005l-0.121-0.022l-0.087-0.005
		l-0.227,0.021h-0.081l-0.225-0.021l-0.061-0.005l-0.031-0.014l-0.011-0.048v-0.088l0.018-0.209l0.004-0.082v-0.374l0.006-0.304
		v-0.08l0.004-0.296v-0.08l-0.021-0.301l-0.004-0.08V52.26l-0.009-0.297v-0.064l-0.016-0.046l-0.049-0.012h-0.078l-0.159,0.012
		h-0.091l-0.138-0.012l-0.087-0.004l-0.083,0.004l-0.118,0.005h-0.074l-0.042-0.005l-0.054-0.009l-0.031-0.021l-0.022-0.037
		l-0.01-0.048v-0.034l-0.005-0.079l0.009-0.149v-0.076l-0.014-0.194l0.004-0.072l0.015-0.066l0.022-0.034l0.031-0.021l0.052-0.01
		h0.111l0.187,0.015h0.079l0.292-0.019h0.078l0.299,0.032h0.078l0.371-0.032l0.292,0.004h0.08l0.376-0.004h0.373l0.167-0.009
		l0.084,0.005l0.041,0.004l0.06,0.01l0.036,0.026l0.026,0.034l0.011,0.059v0.037l0.005,0.075L61.579,51.385z"/>
	<path fill="#1C1C1A" d="M62.579,54.272l-0.015,0.079l-0.027,0.08l-0.035,0.073l-0.044,0.067l-0.067,0.062l-0.068,0.041
		l-0.077,0.021l-0.08,0.02l-0.091,0.005H61.99l-0.038-0.005l-0.075-0.014l-0.034-0.01l-0.082-0.026l-0.082-0.044l-0.063-0.049
		l-0.024-0.028l-0.043-0.056l-0.017-0.031l-0.027-0.063l-0.013-0.032l-0.016-0.067v-0.138l0.018-0.063l0.013-0.036l0.034-0.06
		l0.02-0.031l0.044-0.055l0.021-0.025l0.065-0.055l0.08-0.049l0.078-0.036l0.03-0.022l0.075-0.014h0.121l0.089,0.017l0.077,0.036
		l0.07,0.041l0.065,0.05l0.064,0.048l0.056,0.061l0.036,0.062l0.032,0.08l0.015,0.082V54.272z"/>
</g>
<g>
	<path fill="#1C1C1A" d="M139.646,54.406v0.088l-0.016,0.063l-0.037,0.031l-0.033,0.022l-0.045,0.022h-0.144l-0.214-0.009h-0.082
		l-0.676-0.02h-0.072l-0.511,0.027l-0.165-0.009l-0.055-0.023l-0.021-0.014l-0.011-0.031l-0.005-0.051v-0.116l0.012-0.144
		l-0.007-0.082l-0.019-0.15v-0.064l0.004-0.043l0.021-0.048l0.052-0.014l0.201,0.018h0.082l0.114-0.004l0.06-0.014l0.031-0.02
		l0.017-0.033v-0.36l0.008-0.073l0.018-0.308v-0.07l-0.008-0.112l-0.01-0.072v-0.134l-0.008-0.075l0.008-0.139l0.01-0.173v-0.048
		l-0.01-0.029l-0.033-0.027l-0.049-0.004l-0.184,0.06l-0.068,0.021l-0.078,0.009h-0.064l-0.044-0.021l-0.019-0.034l-0.019-0.053
		l-0.007-0.039v-0.082l0.011-0.125v-0.084l-0.011-0.158v-0.084l0.011-0.06l0.019-0.034l0.027-0.021l0.051-0.025l0.051-0.016
		l0.076-0.036l0.145-0.043l0.07-0.025l0.27-0.101l0.066-0.032l0.268-0.084l0.068-0.03l0.124-0.048l0.082-0.041l0.071-0.018
		l0.056-0.007l0.055,0.016l0.022,0.034l0.019,0.06l0.005,0.062l-0.005,0.052l-0.009,0.196l-0.005,0.083v0.781l-0.019,0.306v0.08
		l0.022,0.311l-0.005,0.082l-0.018,0.308l-0.006,0.078l0.02,0.314l0.004,0.05l0.014,0.027l0.037,0.021l0.059,0.007l0.356,0.008
		l0.032,0.014l0.021,0.046l0.005,0.036l0.006,0.073l-0.011,0.149v0.082L139.646,54.406z"/>
	<path fill="#1C1C1A" d="M143.496,52.643l-0.021,0.333l-0.012,0.073v0.335v0.073l-0.005,0.115l-0.019,0.063l-0.018,0.121
		l-0.025,0.063l-0.043,0.101l-0.041,0.07l-0.051,0.097l-0.053,0.062l-0.08,0.097l-0.06,0.048l-0.06,0.055l-0.063,0.046l-0.073,0.05
		l-0.076,0.042l-0.108,0.052l-0.078,0.024l-0.072,0.021l-0.077,0.014l-0.145,0.031l-0.087,0.017l-0.169,0.027l-0.127,0.018h-0.086
		l-0.086-0.004l-0.082-0.014l-0.219-0.032l-0.078-0.019l-0.125-0.034l-0.082-0.021l-0.086-0.023l-0.08-0.023l-0.074-0.039
		l-0.069-0.036l-0.077-0.048l-0.062-0.043l-0.078-0.066l-0.051-0.054l-0.026-0.043l-0.052-0.065l-0.055-0.114l-0.026-0.072
		l-0.034-0.062l-0.032-0.165v-0.027l0.005-0.062l0.014-0.049l0.031-0.021l0.049-0.016l0.115-0.006l0.076-0.005l0.237,0.021
		l0.188-0.017h0.072l0.078,0.006l0.066,0.021l0.041,0.036l0.023,0.055l0.021,0.036l0.048,0.056l0.036,0.027l0.068,0.041l0.075,0.034
		l0.087,0.021l0.068,0.008l0.146,0.014l0.045-0.007l0.08-0.01l0.047-0.005l0.078-0.036l0.076-0.036l0.068-0.036l0.06-0.057
		l0.052-0.067l0.041-0.07l0.021-0.067v-0.036l-0.005-0.073l-0.009-0.044l-0.027-0.075l-0.036-0.062l-0.046-0.027l-0.014,0.007
		l-0.041,0.025l-0.073,0.041l-0.082,0.036l-0.11,0.033l-0.076,0.018l-0.113,0.011l-0.073,0.005l-0.319,0.016l-0.076-0.007
		l-0.116-0.009l-0.08-0.022l-0.087-0.022l-0.082-0.027l-0.135-0.062l-0.065-0.041l-0.114-0.064l-0.055-0.052l-0.087-0.073
		l-0.046-0.063l-0.086-0.14l-0.037-0.076l-0.051-0.158l-0.022-0.123l-0.021-0.088l-0.004-0.111v-0.075l0.021-0.146l0.014-0.072
		l0.022-0.075l0.024-0.072l0.039-0.104l0.041-0.06l0.051-0.097l0.05-0.06l0.067-0.091l0.049-0.051l0.084-0.07l0.068-0.052
		l0.077-0.043l0.067-0.034l0.119-0.051l0.068-0.026l0.109-0.023l0.187-0.048l0.155-0.018l0.082-0.004l0.13-0.013h0.08l0.114,0.013
		l0.076,0.004l0.115,0.009l0.076,0.016l0.119,0.021l0.169,0.05l0.077,0.027l0.08,0.043l0.072,0.039l0.104,0.065l0.065,0.045
		l0.087,0.064l0.058,0.048l0.07,0.086l0.051,0.055l0.043,0.061l0.041,0.065l0.073,0.128l0.022,0.077l0.021,0.08l0.014,0.086
		l0.015,0.123l0.006,0.087v0.406L143.496,52.643L143.496,52.643z M142.444,52.248l-0.008-0.087l-0.002-0.047l-0.029-0.074
		l-0.05-0.06l-0.044-0.048l-0.034-0.019l-0.05-0.043l-0.066-0.023l-0.036-0.016l-0.075-0.015l-0.129-0.021l-0.076-0.007
		l-0.146,0.012l-0.045,0.004l-0.08,0.023l-0.034,0.021l-0.066,0.045l-0.053,0.051l-0.043,0.06l-0.021,0.026l-0.033,0.122l0.005,0.08
		l0.02,0.075l0.028,0.061l0.044,0.064l0.053,0.058l0.065,0.038l0.116,0.059l0.072,0.019l0.113,0.015h0.076l0.154-0.015l0.074-0.019
		l0.08-0.037l0.063-0.041l0.054-0.057l0.047-0.058l0.027-0.044l0.02-0.077L142.444,52.248L142.444,52.248z"/>
	<path fill="#1C1C1A" d="M147.484,53.429l0.004,0.084v0.128l-0.004,0.072l-0.017,0.111l-0.022,0.07l-0.034,0.105l-0.036,0.069
		l-0.073,0.102l-0.047,0.062l-0.088,0.075l-0.052,0.05l-0.099,0.071l-0.068,0.036l-0.123,0.043l-0.082,0.035l-0.082,0.023
		l-0.082,0.021l-0.119,0.022l-0.072,0.021l-0.191,0.026l-0.118,0.005l-0.077,0.005l-0.113,0.005h-0.064l-0.123-0.005l-0.064-0.005
		l-0.121-0.005l-0.246-0.029l-0.131-0.031l-0.082-0.021l-0.106-0.034l-0.078-0.037l-0.101-0.048l-0.063-0.048l-0.096-0.062
		l-0.06-0.05l-0.07-0.087l-0.049-0.048l-0.065-0.085l-0.048-0.065l-0.051-0.109l-0.026-0.07l-0.015-0.111l-0.01-0.066v-0.135
		l0.015-0.079l0.014-0.113l0.032-0.071l0.051-0.109l0.041-0.062l0.041-0.058l0.051-0.048l0.049-0.058l0.056-0.045l0.063-0.066v-0.05
		l-0.019-0.051l-0.041-0.05l-0.056-0.066l-0.047-0.075l-0.035-0.075l-0.041-0.082l-0.031-0.076l-0.027-0.082l-0.014-0.088
		l-0.004-0.074l0.014-0.109l0.004-0.078l0.032-0.084l0.028-0.082l0.039-0.073l0.049-0.076l0.048-0.066l0.053-0.055l0.07-0.087
		l0.055-0.056l0.058-0.052l0.065-0.048l0.046-0.021l0.088-0.041l0.045-0.021l0.072-0.027l0.078-0.018l0.111-0.043l0.076-0.021
		l0.071-0.014l0.072-0.004l0.133-0.011h0.226l0.131,0.011l0.148,0.009l0.174,0.029l0.088,0.026l0.244,0.068l0.08,0.023l0.106,0.046
		l0.069,0.034l0.097,0.059l0.067,0.05l0.061,0.048l0.055,0.062l0.064,0.091l0.05,0.06l0.046,0.075l0.027,0.082l0.029,0.084
		l0.008,0.08l0.015,0.116v0.073l-0.009,0.069l-0.014,0.075l-0.039,0.109l-0.037,0.07l-0.049,0.077l-0.054,0.061l-0.057,0.055
		l-0.048,0.048l-0.014,0.046l0.014,0.041l0.048,0.05l0.057,0.051l0.054,0.062l0.09,0.135l0.043,0.068l0.045,0.107l0.019,0.08
		L147.484,53.429z M146.187,53.797l0.072-0.032l0.031-0.022l0.064-0.056l0.027-0.036l0.039-0.08l0.014-0.045v-0.087l-0.008-0.036
		l-0.033-0.067l-0.034-0.037l-0.063-0.053l-0.037-0.022l-0.072-0.039l-0.096-0.041l-0.078-0.021l-0.119-0.017l-0.072-0.005
		l-0.118,0.012l-0.069,0.01l-0.117,0.026l-0.077,0.034l-0.036,0.025l-0.059,0.055l-0.033,0.034l-0.041,0.069l-0.018,0.069
		l-0.006,0.068l0.01,0.03l0.036,0.075l0.019,0.041l0.058,0.061l0.065,0.05l0.068,0.037l0.086,0.026l0.082,0.025l0.129,0.004h0.078
		l0.112-0.004l0.073-0.023L146.187,53.797z M145.423,51.876l-0.029,0.044l-0.045,0.059l-0.032,0.071v0.067l0.009,0.034l0.037,0.066
		l0.031,0.029l0.051,0.057l0.041,0.019l0.062,0.047l0.041,0.023l0.082,0.032l0.119,0.019l0.082,0.004l0.066-0.004l0.076-0.01
		l0.107-0.041l0.059-0.036l0.037-0.019l0.045-0.048l0.027-0.031l0.03-0.061l0.022-0.074l0.006-0.073l-0.014-0.034l-0.023-0.066
		l-0.035-0.057l-0.075-0.075l-0.067-0.041l-0.07-0.022l-0.077-0.019l-0.108-0.007H145.8l-0.068,0.007l-0.075,0.019l-0.104,0.034
		l-0.053,0.039L145.423,51.876z"/>
	<path fill="#1C1C1A" d="M151.331,53.521v0.082v0.087l-0.018,0.078l-0.025,0.113l-0.025,0.073l-0.018,0.031l-0.059,0.104
		l-0.057,0.067l-0.024,0.032l-0.052,0.061l-0.049,0.048l-0.053,0.05l-0.119,0.091l-0.062,0.034l-0.102,0.039l-0.07,0.034
		l-0.104,0.034l-0.069,0.021l-0.109,0.034l-0.082,0.022l-0.078,0.015l-0.086,0.011l-0.119,0.003h-0.086l-0.288-0.01l-0.169-0.009
		l-0.077-0.01l-0.077-0.017l-0.082-0.016l-0.113-0.034l-0.073-0.027l-0.068-0.03l-0.077-0.041l-0.109-0.055l-0.063-0.045
		l-0.142-0.116l-0.077-0.08l-0.05-0.053l-0.049-0.077L148.306,54l-0.041-0.107l-0.031-0.07l-0.039-0.101l-0.02-0.062l-0.021-0.12
		l0.009-0.051l0.048-0.041l0.078-0.019l0.171-0.009l0.166,0.009h0.082l0.232-0.02h0.12l0.068,0.015l0.041,0.044l0.034,0.057
		l0.011,0.05l0.045,0.078l0.037,0.027l0.055,0.05l0.031,0.027l0.07,0.037l0.039,0.018l0.086,0.03l0.08,0.021l0.089,0.01h0.078
		l0.121-0.015l0.084-0.034l0.048-0.014l0.068-0.045l0.031-0.032l0.051-0.051l0.027-0.027l0.022-0.064l0.016-0.041v-0.075
		l-0.016-0.048l-0.022-0.066l-0.027-0.037l-0.051-0.055l-0.092-0.059l-0.031-0.018l-0.063-0.028l-0.075-0.021l-0.087-0.012
		l-0.084-0.004h-0.137l-0.16,0.009l-0.106,0.007h-0.113l-0.061-0.021l-0.035-0.037l-0.017-0.063l-0.01-0.075l-0.005-0.063
		l0.005-0.07v-0.075l-0.005-0.108l0.005-0.092l0.021-0.065l0.018-0.034l0.031-0.014l0.17-0.018l0.08,0.008l0.155,0.014l0.068,0.007
		l0.041,0.003l0.077-0.003l0.109-0.014l0.082-0.021l0.041-0.018l0.082-0.039l0.034-0.025l0.058-0.055l0.024-0.029l0.028-0.075
		l0.006-0.048l-0.006-0.051l-0.033-0.077l-0.029-0.039l-0.078-0.079l-0.062-0.029l-0.073-0.017l-0.072-0.009l-0.114-0.003
		l-0.078,0.003l-0.123,0.009l-0.076,0.017l-0.041,0.01l-0.068,0.029l-0.033,0.031l-0.059,0.049l-0.023,0.028l-0.037,0.063
		l-0.024,0.062l-0.051,0.03l-0.063,0.016h-0.13l-0.215-0.012l-0.072-0.004l-0.147,0.009l-0.071-0.005l-0.11-0.004l-0.062-0.014
		l-0.023-0.018l-0.02-0.036v-0.048l0.02-0.108l0.014-0.077l0.05-0.146l0.043-0.101l0.039-0.063l0.045-0.075l0.051-0.065l0.063-0.055
		l0.06-0.056l0.077-0.043l0.074-0.052l0.074-0.043l0.071-0.048l0.082-0.037l0.082-0.027l0.08-0.026l0.087-0.017l0.086-0.009
		l0.162-0.03l0.092-0.011l0.086-0.002l0.082,0.002l0.114,0.004l0.239,0.03l0.115,0.024l0.078,0.017l0.073,0.03l0.077,0.024
		l0.114,0.039l0.067,0.037l0.07,0.037l0.073,0.048l0.069,0.053l0.061,0.056l0.066,0.059l0.047,0.057l0.02,0.029l0.051,0.064
		l0.035,0.082l0.034,0.067l0.022,0.07l0.035,0.104l0.014,0.077l0.004,0.084v0.087l-0.004,0.036l-0.014,0.076l-0.015,0.029
		l-0.024,0.065l-0.07,0.13l-0.061,0.097l-0.041,0.057l-0.092,0.08l-0.036,0.039l-0.012,0.041l0.019,0.045l0.121,0.08l0.057,0.048
		l0.049,0.051l0.053,0.048l0.043,0.062l0.059,0.109l0.026,0.078l0.017,0.088l0.004,0.077L151.331,53.521z"/>
</g>
<g>
	<path fill="#1C1C1A" d="M65.86,39.642c0.789,0.385,1.272,0.875,1.453,1.471c0.199,0.691,0.023,1.605-0.535,2.756
		c-0.528,1.088-1.172,1.756-1.934,2.012c-0.562,0.193-1.121,0.147-1.683-0.116l-2.747-1.336l1.163-2.388l2.776,1.353
		c0.129,0.064,0.254,0.062,0.379-0.002c0.121-0.066,0.216-0.168,0.287-0.31c0.082-0.167,0.107-0.309,0.079-0.423
		c-0.029-0.122-0.112-0.217-0.25-0.275l-1.434-0.698c-0.332-0.16-0.63-0.221-0.899-0.16c-0.606,0.201-1.275,0.411-1.994,0.629
		c-1.17,0.37-1.835,0.572-1.997,0.613c-0.707,0.148-1.286,0.121-1.734-0.098l-1.357-0.659c-0.769-0.374-1.229-0.867-1.381-1.48
		c-0.182-0.716,0-1.614,0.532-2.714c0.463-0.951,1.021-1.556,1.67-1.819c0.562-0.222,1.159-0.181,1.789,0.125l2.078,1.018
		l-1.163,2.383l-2.232-1.083c-0.114-0.05-0.221-0.055-0.324-0.014c-0.101,0.05-0.183,0.127-0.241,0.249
		c-0.068,0.144-0.091,0.26-0.068,0.357c0.024,0.102,0.098,0.181,0.222,0.244l1.125,0.541c0.39,0.191,0.86,0.209,1.395,0.043
		c0.727-0.244,1.411-0.472,2.05-0.685c0.84-0.273,1.415-0.44,1.725-0.485c0.631-0.104,1.203-0.039,1.717,0.216L65.86,39.642z"/>
	<path fill="#1C1C1A" d="M72.083,35.379l-3.428,4.608l-10.728-7.975l3.407-4.582l1.364,1.022l-1.663,2.234l2.895,2.153l1.504-2.021
		l1.317,0.979l-1.505,2.022l3.787,2.814l1.689-2.271L72.083,35.379z"/>
	<path fill="#1C1C1A" d="M78.57,29.35l-2.152,1.918l-2.77-2.34l-1.008,0.896l2.01,3.021l-2.156,1.911l-7.248-11.435l2.79-2.482
		L78.57,29.35z M72.242,27.726l-2.989-2.709l2.36,3.271L72.242,27.726z"/>
	<path fill="#1C1C1A" d="M77.917,16.269l-1.408,0.846l5.995,9.987l-2.503,1.502l-5.995-9.979l-1.408,0.839l-0.886-1.474l5.32-3.192
		L77.917,16.269z"/>
	<path fill="#1C1C1A" d="M90.266,21.439c0.261,0.729,0.174,1.398-0.263,1.995c-0.438,0.604-1.125,1.077-2.057,1.414
		c-0.937,0.335-1.763,0.417-2.489,0.242c-0.727-0.168-1.222-0.627-1.491-1.371l-2.919-8.101c-0.292-0.808-0.277-1.479,0.042-2.025
		c0.353-0.632,1.105-1.152,2.257-1.567c1.052-0.378,1.912-0.451,2.578-0.219c0.667,0.235,1.139,0.734,1.419,1.512L90.266,21.439z
		 M87.648,22.563l-3.104-8.6c-0.049-0.14-0.119-0.214-0.214-0.251c-0.096-0.032-0.225-0.021-0.385,0.045
		c-0.165,0.053-0.276,0.13-0.336,0.221c-0.056,0.089-0.063,0.199-0.014,0.333l3.101,8.593c0.044,0.121,0.117,0.198,0.222,0.235
		c0.105,0.037,0.236,0.025,0.399-0.032c0.161-0.059,0.27-0.139,0.318-0.231C87.688,22.79,87.69,22.682,87.648,22.563z"/>
	<path fill="#1C1C1A" d="M99.26,22.343l-2.99,0.404l-2.941-6.797l0.954,7.065l-2.421,0.324l-1.789-13.245l3.31-0.447l2.482,5.82
		l-0.818-6.043L97.469,9.1L99.26,22.343z"/>
	<path fill="#1C1C1A" d="M114.058,10.764l-4.254,12.794l-4.102-0.775l0.725-13.467l2.789,0.529l-0.718,9.375l2.761-8.987
		L114.058,10.764z"/>
	<path fill="#1C1C1A" d="M118.878,26.935l-2.662-1.104l0.905-3.511l-1.247-0.523l-1.845,3.12l-2.664-1.098l7.149-11.503l3.447,1.423
		L118.878,26.935z M117.589,20.529l1.135-3.867l-1.916,3.551L117.589,20.529z"/>
	<path fill="#1C1C1A" d="M124.134,30.555l-4.588-3.1l7.477-11.072l2.436,1.637l-6.527,9.677l2.158,1.453L124.134,30.555z"/>
	<path fill="#1C1C1A" d="M128.813,34.949l-4-3.824l9.23-9.665l2.127,2.031l-8.059,8.43l1.877,1.802L128.813,34.949z"/>
	<path fill="#1C1C1A" d="M132.837,40.287l-3.406-4.625l10.756-7.933l3.39,4.595l-1.37,1.016l-1.656-2.244l-2.901,2.141l1.493,2.03
		l-1.322,0.974l-1.496-2.028l-3.795,2.791l1.684,2.283L132.837,40.287z"/>
	<path fill="#1C1C1A" d="M148.851,42.674l-8.543,0.759l-4.807,2.212l-1.222-2.655l4.817-2.221l6.295-5.589l1.177,2.549l-3.755,3.16
		l4.924-0.627L148.851,42.674z"/>
</g>
<g>
	<path fill="#E13F2F" d="M100.643,94.473c-18.854,0-34.195-15.332-34.195-34.191c0-18.86,15.344-34.196,34.195-34.196
		s34.188,15.341,34.188,34.198C134.832,79.131,119.495,94.473,100.643,94.473z M100.643,29.104c-17.194,0-31.18,13.987-31.18,31.183
		c0,17.184,13.986,31.176,31.18,31.176c17.187,0,31.176-13.986,31.176-31.176C131.819,43.089,117.833,29.104,100.643,29.104z"/>
</g>
<path fill="#E13F2F" d="M100.345,30.836c0,0,3.36,9.877,6.384,10.659c1.918,0.502,2.912-1.779,2.912-1.779s0.5,2.849-0.075,5.686
	c-0.569,2.841-2.494,7.602-1.716,9.875c0,0,2.488-0.994,3.486-3.341c0.993-2.337,5.258-4.319,5.258-4.319s-0.998,2.271-0.215,3.187
	c0.78,0.925,6.678-3.328,10.168-2.833c0,0-6.551,6.958-4.986,9.38c1.557,2.408,3.837,1.133,3.837,1.133s-2.773,4.043-5.692,5.112
	c-2.914,1.066-6.043,2.479-6.043,2.479s5.756,0.648,6.889,3.643c0,0-2.41-0.576-3.054-0.004c-0.641,0.559,0.923,1.842,1.774,2.836
	c0.849,1,1.41,3.414,1.41,3.414s-6.03-1.709-7.031-0.727c-0.994,1.002,0.926,3.555,0.926,3.555s-2.839-0.926-4.757-2.842
	c-1.909-1.924-5.888-4.836-8.657-4.557c0,0-0.43,5.33,1.549,9.166c1.993,3.842,6.246,6.182,6.246,6.182s-2.627,0.994-2.627,1.91
	c0,0-5.108-3.551-5.742-8.805c-0.635-5.254-0.631-8.523-0.631-8.523s-4.265-0.354-6.398,2.41c-2.132,2.77-7.388,4.965-7.388,4.965
	s1.416-2.131,0.711-3.334c-0.709-1.219-6.743,0.834-6.743,0.834s-0.36-2.342,1.351-3.838c1.705-1.484,1.771-1.914,1.707-2.623
	c-0.07-0.713-3.129,0.139-3.129,0.139s2.562-3.408,7.034-3.688c0,0-8.939-3.131-11.638-7.61c0,0,3.521,0.452,3.836-1.633
	c0.65-4.185-5.315-8.948-5.315-8.948s3.55,0.072,5.04,0.928c1.494,0.853,5.254,2.415,5.466,1.85
	c0.212-0.569-0.138-3.271-0.138-3.271s3.407,1.791,4.257,3.423c0.845,1.625,2.973,4.255,4.188,4.409c0,0,0.922-2.988-0.21-4.975
	c-1.134-1.993-1.979-7.597-1.267-10.654c0,0,0.423,1.795,1.989,1.92C96.641,41.912,100.345,30.836,100.345,30.836z"/>
<g>
	<path fill="#FFFFFF" d="M55.356,64.963c0,0-32.09-0.535-36.395-0.535c-4.304,0-8.769-3.799-8.769-3.799s4.421,5.068,8.724,5.068
		C23.22,65.698,55.356,64.963,55.356,64.963z"/>
	<path fill="#FFFFFF" d="M57.308,76.158c0,0-19.46-0.535-23.763-0.535c-4.301,0-8.769-3.803-8.769-3.803s4.417,5.066,8.72,5.066
		C37.799,76.893,57.308,76.158,57.308,76.158z"/>
	<path fill="#FFFFFF" d="M62.82,87.297c0,0-10.391-0.533-14.694-0.533c-4.304,0-8.77-3.799-8.77-3.799s4.416,5.062,8.721,5.062
		C52.381,88.028,62.82,87.297,62.82,87.297z"/>
	<path fill="#FFFFFF" d="M76.707,98.545c0,0-4.537-0.537-8.839-0.537c-4.301,0-8.769-3.801-8.769-3.801s4.418,5.066,8.719,5.066
		C72.123,99.272,76.707,98.545,76.707,98.545z"/>
</g>
<g>
	<path fill="#FFFFFF" d="M145.384,64.963c0,0,32.09-0.535,36.394-0.535c4.306,0,8.771-3.801,8.771-3.801s-4.422,5.068-8.719,5.068
		C177.521,65.696,145.384,64.963,145.384,64.963z"/>
	<path fill="#FFFFFF" d="M143.431,76.158c0,0,19.459-0.535,23.765-0.535c4.308,0,8.767-3.803,8.767-3.803s-4.416,5.066-8.712,5.066
		C162.937,76.893,143.431,76.158,143.431,76.158z"/>
	<path fill="#FFFFFF" d="M137.917,87.297c0,0,10.391-0.533,14.696-0.533c4.303,0,8.769-3.799,8.769-3.799s-4.416,5.062-8.719,5.062
		C148.364,88.028,137.917,87.297,137.917,87.297z"/>
	<path fill="#FFFFFF" d="M124.029,98.545c0,0,4.538-0.537,8.834-0.537c4.306,0,8.772-3.801,8.772-3.801s-4.416,5.066-8.721,5.066
		C128.615,99.272,124.029,98.545,124.029,98.545z"/>
</g>
</svg>
